<?xml version="1.0" encoding="UTF-8"?>
<svg width="165px" height="47px" viewBox="0 0 165 47" version="1.1" xmlns="http://www.w3.org/2000/svg" xmlns:xlink="http://www.w3.org/1999/xlink">
    <title>Logo</title>
    <defs>
        <polygon id="path-1" points="0 0.935 43.9677 0.935 43.9677 45 0 45"></polygon>
    </defs>
    <g id="logo" stroke="none" stroke-width="1" fill="none" fill-rule="evenodd">
        <g id="Group-8">
            <g id="Group-3" transform="translate(0.000000, 0.065000)">
                <mask id="mask-2" fill="white">
                    <use xlink:href="#path-1"></use>
                </mask>
                <g id="Clip-2"></g>
                <path d="M38.3427,17.294 C35.5637,17.294 33.1817,19.356 32.7787,22.099 L31.0927,22.099 C30.9177,20.168 30.1487,18.38 28.8687,16.921 L29.9857,15.804 L32.0467,16.357 L34.2497,14.154 L33.4437,11.146 L30.4347,10.339 L28.2327,12.542 L28.8017,14.668 L27.6827,15.788 C26.2797,14.667 24.5947,13.992 22.8037,13.834 L22.8037,12.123 C25.5467,11.721 27.6077,9.338 27.6077,6.559 C27.6077,3.458 25.0847,0.935 21.9837,0.935 C18.8827,0.935 16.3597,3.458 16.3597,6.559 C16.3597,9.338 18.4207,11.721 21.1627,12.123 L21.1627,13.834 C19.3317,13.996 17.6167,14.695 16.1957,15.86 L14.9207,14.585 L15.4677,12.542 L13.2657,10.339 L10.2577,11.146 L9.4507,14.154 L11.6537,16.357 L13.7987,15.782 L15.0237,17.007 C13.7877,18.45 13.0457,20.208 12.8737,22.099 L11.1877,22.099 C10.7857,19.356 8.4037,17.294 5.6237,17.294 C2.5227,17.294 -0.0003,19.817 -0.0003,22.919 C-0.0003,26.02 2.5227,28.543 5.6237,28.543 C8.4037,28.543 10.7857,26.481 11.1877,23.739 L12.8677,23.739 C13.0237,25.56 13.7107,27.269 14.8597,28.689 L13.6707,29.877 L11.4827,29.291 L9.2807,31.494 L10.0867,34.502 L13.0947,35.308 L15.2977,33.106 L14.7607,31.106 L15.9997,29.868 C17.4587,31.133 19.2417,31.889 21.1627,32.059 L21.1627,33.812 C18.4207,34.214 16.3597,36.596 16.3597,39.376 C16.3597,42.477 18.8827,45 21.9837,45 C25.0847,45 27.6077,42.477 27.6077,39.376 C27.6077,36.596 25.5467,34.214 22.8037,33.812 L22.8037,32.059 C24.7047,31.892 26.4727,31.148 27.9237,29.906 L29.0147,30.998 L28.4397,33.143 L30.6417,35.345 L33.6507,34.539 L34.4567,31.53 L32.2547,29.328 L30.2117,29.876 L29.0697,28.734 C30.2407,27.305 30.9417,25.58 31.0987,23.739 L32.7787,23.739 C33.1817,26.481 35.5637,28.543 38.3427,28.543 C41.4437,28.543 43.9677,26.02 43.9677,22.919 C43.9677,19.817 41.4437,17.294 38.3427,17.294 M5.6237,26.903 C3.4267,26.903 1.6397,25.116 1.6397,22.919 C1.6397,20.722 3.4267,18.934 5.6237,18.934 C7.8207,18.934 9.6077,20.722 9.6077,22.919 C9.6077,25.116 7.8207,26.903 5.6237,26.903 M17.9997,6.559 C17.9997,4.362 19.7857,2.575 21.9837,2.575 C24.1797,2.575 25.9677,4.362 25.9677,6.559 C25.9677,8.756 24.1797,10.543 21.9837,10.543 C19.7857,10.543 17.9997,8.756 17.9997,6.559 M25.9677,39.376 C25.9677,41.573 24.1797,43.36 21.9837,43.36 C19.7857,43.36 17.9997,41.573 17.9997,39.376 C17.9997,37.179 19.7857,35.392 21.9837,35.392 C24.1797,35.392 25.9677,37.179 25.9677,39.376 M21.9837,30.456 C17.8427,30.456 14.4737,27.087 14.4737,22.946 C14.4737,18.805 17.8427,15.437 21.9837,15.437 C26.1247,15.437 29.4927,18.805 29.4927,22.946 C29.4927,27.087 26.1247,30.456 21.9837,30.456 M38.3427,26.903 C36.1457,26.903 34.3587,25.116 34.3587,22.919 C34.3587,20.722 36.1457,18.934 38.3427,18.934 C40.5397,18.934 42.3267,20.722 42.3267,22.919 C42.3267,25.116 40.5397,26.903 38.3427,26.903" id="Fill-1" fill="#FFFFFF" mask="url(#mask-2)"></path>
            </g>
            <path d="M63.83,21.152 C64.463,21.152 64.891,21.058 65.114,20.869 C65.336,20.681 65.448,20.262 65.448,19.611 L65.448,18.585 C65.448,17.865 65.358,17.173 65.178,16.505 C64.998,15.837 64.686,15.243 64.241,14.72 C63.795,14.198 63.205,13.783 62.469,13.475 C61.733,13.167 60.801,13.013 59.671,13.013 C58.473,13.013 57.476,13.189 56.68,13.539 C55.884,13.89 55.246,14.37 54.767,14.977 C54.288,15.585 53.946,16.296 53.74,17.108 C53.535,17.921 53.432,18.781 53.432,19.688 L53.432,20.51 C53.432,21.554 53.548,22.478 53.779,23.283 C54.01,24.088 54.382,24.768 54.895,25.324 C55.409,25.881 56.077,26.299 56.898,26.582 C57.72,26.864 58.721,27.006 59.902,27.006 C60.706,27.006 61.528,26.95 62.367,26.839 C63.205,26.727 63.872,26.586 64.369,26.415 L64.857,23.796 C64.327,23.882 63.757,23.963 63.15,24.04 C62.542,24.117 61.87,24.156 61.134,24.156 C60.381,24.156 59.765,24.104 59.286,24.002 C58.807,23.899 58.421,23.728 58.13,23.488 C57.839,23.249 57.63,22.941 57.501,22.564 C57.373,22.188 57.291,21.716 57.258,21.152 L63.83,21.152 Z M61.314,16.377 C61.656,16.804 61.828,17.446 61.828,18.302 L61.828,18.764 L57.206,18.764 C57.24,17.703 57.446,16.933 57.822,16.454 C58.199,15.974 58.798,15.735 59.62,15.735 C60.407,15.735 60.972,15.949 61.314,16.377 L61.314,16.377 Z M67.863,8.418 L67.863,26.697 L79.185,26.697 L79.622,23.514 L71.766,23.514 L71.766,8.418 L67.863,8.418 Z M84.6,22.487 C84.6,21.375 85.267,20.818 86.602,20.818 L87.039,20.818 C88.476,20.818 89.196,21.323 89.196,22.333 L89.196,22.538 C89.196,23.086 88.999,23.514 88.605,23.822 C88.211,24.13 87.604,24.284 86.782,24.284 C86.012,24.284 85.455,24.143 85.113,23.86 C84.771,23.578 84.6,23.163 84.6,22.615 L84.6,22.487 Z M81.082,22.795 C81.082,23.565 81.194,24.216 81.416,24.746 C81.639,25.277 81.951,25.705 82.353,26.03 C82.755,26.355 83.226,26.591 83.766,26.736 C84.305,26.881 84.891,26.954 85.524,26.954 C86.329,26.954 87.06,26.834 87.719,26.595 C88.378,26.355 88.913,25.962 89.324,25.414 L89.555,26.697 L92.765,26.697 L92.765,18.122 C92.765,16.462 92.259,15.195 91.249,14.322 C90.239,13.449 88.75,13.013 86.782,13.013 C86.115,13.013 85.396,13.065 84.625,13.167 C83.855,13.27 83.196,13.398 82.649,13.552 L82.186,16.402 C82.991,16.231 83.676,16.107 84.241,16.03 C84.805,15.953 85.344,15.914 85.858,15.914 C86.988,15.914 87.822,16.124 88.361,16.543 C88.9,16.963 89.17,17.669 89.17,18.661 L89.17,19.355 C88.81,19.012 88.357,18.764 87.809,18.61 C87.261,18.456 86.62,18.379 85.884,18.379 C85.164,18.379 84.51,18.452 83.919,18.597 C83.329,18.743 82.824,18.983 82.405,19.316 C81.985,19.65 81.66,20.082 81.429,20.613 C81.198,21.143 81.082,21.802 81.082,22.589 L81.082,22.795 Z M104.048,20.664 C104.048,21.845 103.826,22.714 103.38,23.27 C102.935,23.826 102.234,24.104 101.275,24.104 C100.916,24.104 100.547,24.07 100.171,24.002 C99.794,23.933 99.461,23.831 99.17,23.694 L99.17,19.047 C99.17,17.968 99.371,17.19 99.773,16.71 C100.175,16.231 100.788,15.991 101.609,15.991 C102.516,15.991 103.149,16.27 103.509,16.826 C103.869,17.382 104.048,18.277 104.048,19.508 L104.048,20.664 Z M107.899,19.508 C107.899,17.284 107.479,15.645 106.641,14.592 C105.802,13.539 104.527,13.013 102.815,13.013 C101.994,13.013 101.296,13.129 100.723,13.36 C100.149,13.59 99.632,13.937 99.17,14.4 L99.17,7.622 L95.37,7.622 L95.37,25.568 C96.175,26.013 97.06,26.363 98.027,26.62 C98.994,26.877 100.043,27.006 101.172,27.006 C102.182,27.006 103.102,26.886 103.933,26.646 C104.763,26.406 105.473,26.022 106.063,25.491 C106.654,24.961 107.107,24.271 107.424,23.424 C107.741,22.577 107.899,21.546 107.899,20.33 L107.899,19.508 Z M110.407,8.418 L110.407,26.697 L114.079,26.697 L114.079,14.605 L121.268,26.697 L124.707,26.697 L124.707,8.418 L121.062,8.418 L121.062,20.51 L113.873,8.418 L110.407,8.418 Z M137.596,21.152 C138.229,21.152 138.657,21.058 138.879,20.869 C139.102,20.681 139.213,20.262 139.213,19.611 L139.213,18.585 C139.213,17.865 139.123,17.173 138.944,16.505 C138.764,15.837 138.452,15.243 138.007,14.72 C137.561,14.198 136.971,13.783 136.235,13.475 C135.499,13.167 134.566,13.013 133.436,13.013 C132.238,13.013 131.242,13.189 130.446,13.539 C129.65,13.89 129.012,14.37 128.533,14.977 C128.053,15.585 127.711,16.296 127.506,17.108 C127.3,17.921 127.198,18.781 127.198,19.688 L127.198,20.51 C127.198,21.554 127.313,22.478 127.544,23.283 C127.775,24.088 128.148,24.768 128.661,25.324 C129.175,25.881 129.842,26.299 130.664,26.582 C131.485,26.864 132.487,27.006 133.668,27.006 C134.472,27.006 135.293,26.95 136.132,26.839 C136.971,26.727 137.638,26.586 138.135,26.415 L138.623,23.796 C138.092,23.882 137.523,23.963 136.915,24.04 C136.308,24.117 135.636,24.156 134.9,24.156 C134.146,24.156 133.53,24.104 133.052,24.002 C132.572,23.899 132.187,23.728 131.896,23.488 C131.605,23.249 131.395,22.941 131.267,22.564 C131.139,22.188 131.058,21.716 131.023,21.152 L137.596,21.152 Z M135.079,16.377 C135.422,16.804 135.593,17.446 135.593,18.302 L135.593,18.764 L130.972,18.764 C131.006,17.703 131.211,16.933 131.588,16.454 C131.964,15.974 132.563,15.735 133.385,15.735 C134.172,15.735 134.737,15.949 135.079,16.377 L135.079,16.377 Z M154.083,26.697 L149.102,19.663 L153.647,13.321 L149.59,13.321 L147.1,17.224 L144.61,13.321 L140.451,13.321 L144.969,19.74 L140.014,26.697 L144.07,26.697 L146.972,22.204 L149.924,26.697 L154.083,26.697 Z M164.487,16.12 L164.897,13.321 L160.892,13.321 L160.892,9.624 L157.092,10.112 L157.092,13.321 L155.013,13.321 L154.602,16.12 L157.066,16.12 L157.066,21.691 C157.066,23.54 157.447,24.879 158.209,25.709 C158.971,26.539 160.173,26.954 161.816,26.954 C162.364,26.954 162.886,26.916 163.382,26.839 C163.879,26.761 164.272,26.672 164.563,26.569 L165,23.899 C164.76,23.933 164.487,23.967 164.178,24.002 C163.871,24.036 163.562,24.053 163.254,24.053 C162.381,24.053 161.769,23.878 161.418,23.527 C161.067,23.176 160.892,22.581 160.892,21.742 L160.892,16.12 L164.487,16.12 Z" id="Fill-4" fill="#FFFFFF"></path>
            <path d="M164.9999,32.8205 C164.9969,32.3425 164.8929,31.9295 164.6889,31.5825 C164.4859,31.2355 164.2069,30.9665 163.8499,30.7785 C163.4929,30.5895 163.0819,30.4945 162.6169,30.4915 L159.9479,30.4915 L159.9479,38.2125 L160.7059,38.2125 L160.7059,35.1825 L162.6169,35.1825 C163.0819,35.1795 163.4929,35.0825 163.8499,34.8895 C164.2069,34.6975 164.4859,34.4245 164.6889,34.0725 C164.8929,33.7195 164.9969,33.3025 164.9999,32.8205 L164.9999,32.8205 Z M164.2199,32.8205 C164.2179,33.1735 164.1469,33.4745 164.0079,33.7245 C163.8689,33.9755 163.6719,34.1675 163.4179,34.2995 C163.1639,34.4325 162.8639,34.5005 162.5179,34.5015 L160.7059,34.5015 L160.7059,31.1725 L162.5289,31.1725 C162.8719,31.1745 163.1689,31.2385 163.4209,31.3675 C163.6739,31.4975 163.8699,31.6845 164.0089,31.9295 C164.1479,32.1745 164.2179,32.4715 164.2199,32.8205 L164.2199,32.8205 Z M156.9239,37.0155 C157.1689,36.5935 157.2949,36.0965 157.2989,35.5225 L157.2989,30.4915 L156.5409,30.4915 L156.5409,35.4895 C156.5379,35.9405 156.4469,36.3265 156.2669,36.6475 C156.0859,36.9675 155.8319,37.2135 155.5039,37.3835 C155.1759,37.5545 154.7889,37.6405 154.3439,37.6415 C153.8979,37.6405 153.5119,37.5545 153.1859,37.3845 C152.8599,37.2155 152.6069,36.9715 152.4289,36.6535 C152.2499,36.3365 152.1599,35.9555 152.1579,35.5105 L152.1579,30.4915 L151.3889,30.4915 L151.3889,35.5225 C151.3929,36.0965 151.5189,36.5935 151.7669,37.0155 C152.0149,37.4365 152.3609,37.7625 152.8049,37.9925 C153.2479,38.2235 153.7649,38.3415 154.3539,38.3435 C154.9409,38.3415 155.4539,38.2235 155.8939,37.9925 C156.3339,37.7625 156.6779,37.4365 156.9239,37.0155 L156.9239,37.0155 Z M148.9579,35.8885 C149.1599,35.4005 149.2619,34.8715 149.2659,34.3025 C149.2619,33.7445 149.1599,33.2275 148.9579,32.7515 C148.7569,32.2745 148.4769,31.8575 148.1189,31.4995 C147.7609,31.1425 147.3439,30.8635 146.8699,30.6645 C146.3949,30.4655 145.8829,30.3635 145.3329,30.3605 C144.7829,30.3635 144.2709,30.4655 143.7959,30.6645 C143.3209,30.8635 142.9049,31.1425 142.5459,31.4995 C142.1879,31.8575 141.9079,32.2745 141.7069,32.7515 C141.5049,33.2275 141.4029,33.7445 141.3999,34.3025 C141.4029,34.8715 141.5049,35.4005 141.7069,35.8885 C141.9079,36.3775 142.1879,36.8045 142.5459,37.1715 C142.9049,37.5395 143.3209,37.8255 143.7959,38.0305 C144.2709,38.2365 144.7829,38.3405 145.3329,38.3435 C145.8829,38.3405 146.3949,38.2365 146.8699,38.0305 C147.3439,37.8255 147.7609,37.5395 148.1189,37.1715 C148.4769,36.8045 148.7569,36.3775 148.9579,35.8885 L148.9579,35.8885 Z M148.4749,34.3025 C148.4719,34.7775 148.3899,35.2175 148.2279,35.6215 C148.0659,36.0265 147.8419,36.3785 147.5539,36.6805 C147.2679,36.9825 146.9349,37.2175 146.5559,37.3855 C146.1769,37.5535 145.7699,37.6385 145.3329,37.6415 C144.8929,37.6385 144.4839,37.5535 144.1039,37.3855 C143.7259,37.2175 143.3929,36.9825 143.1059,36.6805 C142.8199,36.3785 142.5969,36.0265 142.4359,35.6215 C142.2749,35.2175 142.1929,34.7775 142.1899,34.3025 C142.1929,33.8395 142.2749,33.4105 142.4359,33.0185 C142.5969,32.6255 142.8199,32.2825 143.1059,31.9905 C143.3929,31.6985 143.7259,31.4715 144.1039,31.3095 C144.4839,31.1475 144.8929,31.0655 145.3329,31.0635 C145.7699,31.0655 146.1769,31.1475 146.5559,31.3095 C146.9349,31.4715 147.2679,31.6985 147.5539,31.9905 C147.8419,32.2825 148.0659,32.6255 148.2279,33.0185 C148.3899,33.4105 148.4719,33.8395 148.4749,34.3025 L148.4749,34.3025 Z M137.9629,34.7975 L137.9629,34.7755 C138.2539,34.6935 138.5089,34.5545 138.7279,34.3595 C138.9459,34.1635 139.1159,33.9245 139.2379,33.6395 C139.3599,33.3555 139.4219,33.0385 139.4239,32.6885 C139.4229,32.3765 139.3759,32.0895 139.2839,31.8285 C139.1899,31.5695 139.0569,31.3425 138.8839,31.1505 C138.7099,30.9575 138.5019,30.8075 138.2599,30.7005 C138.1599,30.6565 138.0469,30.6185 137.9229,30.5885 C137.7979,30.5565 137.6469,30.5325 137.4689,30.5165 C137.2909,30.5005 137.0709,30.4915 136.8099,30.4915 L134.5249,30.4915 L134.5249,38.2125 L135.2829,38.2125 L135.2829,34.9625 L137.2279,34.9625 L138.9739,38.2125 L139.8419,38.2125 L138.1609,35.1055 C138.0999,35.0015 138.0519,34.9235 138.0169,34.8725 C137.9819,34.8225 137.9639,34.7975 137.9629,34.7975 L137.9629,34.7975 Z M137.9279,34.0895 C137.7009,34.2165 137.4299,34.2795 137.1169,34.2815 L135.2829,34.2815 L135.2829,31.1725 L136.8429,31.1725 C137.0389,31.1725 137.2049,31.1795 137.3399,31.1945 C137.4759,31.2085 137.5909,31.2295 137.6859,31.2575 C137.7809,31.2855 137.8659,31.3195 137.9409,31.3595 C138.1669,31.4815 138.3409,31.6575 138.4609,31.8865 C138.5819,32.1155 138.6439,32.3905 138.6439,32.7105 C138.6429,33.0345 138.5799,33.3135 138.4559,33.5475 C138.3319,33.7815 138.1559,33.9625 137.9279,34.0895 L137.9279,34.0895 Z M131.4829,38.2125 L132.1849,38.2125 L132.1849,34.5225 L130.1429,34.5225 L130.1429,35.2035 L131.4609,35.2035 L131.4609,36.5105 C131.4599,36.5135 131.4239,36.5525 131.3529,36.6285 C131.2809,36.7035 131.1769,36.7975 131.0399,36.9085 C130.9019,37.0205 130.7349,37.1325 130.5379,37.2435 C130.3399,37.3555 130.1159,37.4485 129.8629,37.5245 C129.6109,37.5995 129.3339,37.6385 129.0329,37.6415 C128.5909,37.6395 128.1839,37.5565 127.8129,37.3925 C127.4399,37.2285 127.1169,36.9985 126.8409,36.7015 C126.5659,36.4045 126.3519,36.0555 126.1999,35.6535 C126.0469,35.2535 125.9699,34.8135 125.9679,34.3365 C125.9699,33.8745 126.0449,33.4465 126.1949,33.0505 C126.3439,32.6555 126.5569,32.3085 126.8329,32.0115 C127.1089,31.7145 127.4389,31.4825 127.8219,31.3165 C128.2049,31.1505 128.6299,31.0655 129.0989,31.0635 C129.4519,31.0675 129.7699,31.1075 130.0529,31.1835 C130.3359,31.2585 130.5779,31.3475 130.7789,31.4475 C130.9809,31.5475 131.1359,31.6355 131.2429,31.7115 C131.3509,31.7875 131.4049,31.8275 131.4059,31.8315 L131.8119,31.2605 C131.8119,31.2585 131.7739,31.2275 131.6979,31.1675 C131.6229,31.1075 131.5099,31.0325 131.3609,30.9445 C131.2109,30.8555 131.0269,30.7665 130.8059,30.6775 C130.5849,30.5885 130.3299,30.5145 130.0389,30.4545 C129.7489,30.3945 129.4239,30.3625 129.0659,30.3605 C128.5079,30.3635 127.9939,30.4665 127.5219,30.6695 C127.0509,30.8725 126.6399,31.1555 126.2889,31.5175 C125.9389,31.8805 125.6669,32.3015 125.4729,32.7835 C125.2779,33.2645 125.1799,33.7865 125.1769,34.3475 C125.1799,34.9235 125.2779,35.4545 125.4709,35.9395 C125.6639,36.4245 125.9319,36.8475 126.2749,37.2065 C126.6189,37.5655 127.0199,37.8435 127.4759,38.0425 C127.9319,38.2405 128.4259,38.3415 128.9559,38.3435 C129.2809,38.3415 129.5769,38.3055 129.8419,38.2355 C130.1069,38.1665 130.3409,38.0795 130.5439,37.9775 C130.7469,37.8735 130.9169,37.7715 131.0549,37.6685 C131.1919,37.5655 131.2959,37.4795 131.3659,37.4095 C131.4369,37.3405 131.4719,37.3035 131.4719,37.3015 L131.4939,37.3015 C131.4929,37.3045 131.4919,37.3395 131.4879,37.4035 C131.4849,37.4695 131.4829,37.5455 131.4829,37.6305 L131.4829,38.2125 Z M116.8389,31.1725 L120.1449,31.1725 L120.1449,30.4915 L116.0809,30.4915 L116.0809,38.2125 L116.8389,38.2125 L116.8389,34.7535 L119.6729,34.7535 L119.6729,34.0725 L116.8389,34.0725 L116.8389,31.1725 Z M112.1159,34.7975 L112.1159,34.7755 C112.4069,34.6935 112.6619,34.5545 112.8799,34.3595 C113.0979,34.1635 113.2689,33.9245 113.3909,33.6395 C113.5129,33.3555 113.5749,33.0385 113.5769,32.6885 C113.5749,32.3765 113.5279,32.0895 113.4359,31.8285 C113.3429,31.5695 113.2089,31.3425 113.0359,31.1505 C112.8629,30.9575 112.6549,30.8075 112.4119,30.7005 C112.3119,30.6565 112.1999,30.6185 112.0749,30.5885 C111.9509,30.5565 111.7989,30.5325 111.6209,30.5165 C111.4429,30.5005 111.2229,30.4915 110.9619,30.4915 L108.6769,30.4915 L108.6769,38.2125 L109.4359,38.2125 L109.4359,34.9625 L111.3789,34.9625 L113.1259,38.2125 L113.9939,38.2125 L112.3129,35.1055 C112.2519,35.0015 112.2039,34.9235 112.1689,34.8725 C112.1339,34.8225 112.1159,34.7975 112.1159,34.7975 L112.1159,34.7975 Z M112.0809,34.0895 C111.8529,34.2165 111.5829,34.2795 111.2699,34.2815 L109.4359,34.2815 L109.4359,31.1725 L110.9949,31.1725 C111.1909,31.1725 111.3569,31.1795 111.4919,31.1945 C111.6269,31.2085 111.7429,31.2295 111.8379,31.2575 C111.9329,31.2855 112.0179,31.3195 112.0939,31.3595 C112.3199,31.4815 112.4929,31.6575 112.6139,31.8865 C112.7339,32.1155 112.7949,32.3905 112.7959,32.7105 C112.7949,33.0345 112.7319,33.3135 112.6079,33.5475 C112.4839,33.7815 112.3089,33.9625 112.0809,34.0895 L112.0809,34.0895 Z M106.1479,35.8885 C106.3489,35.4005 106.4519,34.8715 106.4549,34.3025 C106.4519,33.7445 106.3489,33.2275 106.1479,32.7515 C105.9469,32.2745 105.6669,31.8575 105.3079,31.4995 C104.9499,31.1425 104.5339,30.8635 104.0589,30.6645 C103.5839,30.4655 103.0719,30.3635 102.5219,30.3605 C101.9719,30.3635 101.4599,30.4655 100.9849,30.6645 C100.5109,30.8635 100.0939,31.1425 99.7359,31.4995 C99.3769,31.8575 99.0979,32.2745 98.8959,32.7515 C98.6949,33.2275 98.5919,33.7445 98.5889,34.3025 C98.5919,34.8715 98.6949,35.4005 98.8959,35.8885 C99.0979,36.3775 99.3769,36.8045 99.7359,37.1715 C100.0939,37.5395 100.5109,37.8255 100.9849,38.0305 C101.4599,38.2365 101.9719,38.3405 102.5219,38.3435 C103.0719,38.3405 103.5839,38.2365 104.0589,38.0305 C104.5339,37.8255 104.9499,37.5395 105.3079,37.1715 C105.6669,36.8045 105.9469,36.3775 106.1479,35.8885 L106.1479,35.8885 Z M105.6639,34.3025 C105.6609,34.7775 105.5789,35.2175 105.4169,35.6215 C105.2549,36.0265 105.0309,36.3785 104.7439,36.6805 C104.4569,36.9825 104.1239,37.2175 103.7449,37.3855 C103.3669,37.5535 102.9589,37.6385 102.5219,37.6415 C102.0829,37.6385 101.6729,37.5535 101.2939,37.3855 C100.9149,37.2175 100.5819,36.9825 100.2959,36.6805 C100.0099,36.3785 99.7859,36.0265 99.6259,35.6215 C99.4639,35.2175 99.3829,34.7775 99.3799,34.3025 C99.3829,33.8395 99.4639,33.4105 99.6259,33.0185 C99.7859,32.6255 100.0099,32.2825 100.2959,31.9905 C100.5819,31.6985 100.9149,31.4715 101.2939,31.3095 C101.6729,31.1475 102.0829,31.0655 102.5219,31.0635 C102.9589,31.0655 103.3669,31.1475 103.7449,31.3095 C104.1239,31.4715 104.4569,31.6985 104.7439,31.9905 C105.0309,32.2825 105.2549,32.6255 105.4169,33.0185 C105.5789,33.4105 105.6609,33.8395 105.6639,34.3025 L105.6639,34.3025 Z M96.5719,35.9885 C96.7569,35.5095 96.8509,34.9625 96.8529,34.3465 C96.8509,33.7365 96.7569,33.1925 96.5719,32.7165 C96.3879,32.2385 96.1249,31.8355 95.7829,31.5055 C95.4409,31.1745 95.0329,30.9235 94.5589,30.7515 C94.0839,30.5795 93.5559,30.4925 92.9749,30.4915 L90.4809,30.4915 L90.4809,38.2125 L92.9749,38.2125 C93.5559,38.2115 94.0839,38.1255 94.5589,37.9545 C95.0329,37.7835 95.4409,37.5325 95.7829,37.2025 C96.1249,36.8715 96.3879,36.4675 96.5719,35.9885 L96.5719,35.9885 Z M96.0619,34.3465 C96.0579,35.0365 95.9249,35.6175 95.6639,36.0905 C95.4019,36.5635 95.0349,36.9215 94.5629,37.1645 C94.0899,37.4085 93.5349,37.5305 92.8979,37.5315 L91.2389,37.5315 L91.2389,31.1725 L92.8979,31.1725 C93.5309,31.1745 94.0849,31.2965 94.5579,31.5395 C95.0299,31.7825 95.3979,32.1395 95.6609,32.6115 C95.9239,33.0825 96.0569,33.6605 96.0619,34.3465 L96.0619,34.3465 Z M86.9989,38.2125 L87.7349,38.2125 L87.7349,30.4915 L86.9769,30.4915 L86.9769,36.0485 C86.9779,36.1525 86.9799,36.2645 86.9869,36.3835 C86.9939,36.5025 87.0009,36.6155 87.0099,36.7225 C87.0189,36.8305 87.0259,36.9175 87.0329,36.9865 C87.0389,37.0545 87.0419,37.0895 87.0429,37.0915 L87.0209,37.0915 C87.0199,37.0895 86.9989,37.0535 86.9589,36.9835 C86.9179,36.9125 86.8659,36.8235 86.8009,36.7145 C86.7369,36.6055 86.6669,36.4925 86.5949,36.3735 C86.5209,36.2565 86.4509,36.1475 86.3839,36.0485 L82.4399,30.4915 L81.7049,30.4915 L81.7049,38.2125 L82.4619,38.2125 L82.4619,32.6555 C82.4619,32.5515 82.4589,32.4405 82.4519,32.3215 C82.4459,32.2025 82.4379,32.0895 82.4289,31.9825 C82.4209,31.8745 82.4139,31.7865 82.4069,31.7185 C82.3999,31.6505 82.3969,31.6145 82.3959,31.6125 L82.4179,31.6125 C82.4189,31.6145 82.4399,31.6515 82.4809,31.7215 C82.5209,31.7915 82.5739,31.8815 82.6379,31.9895 C82.7029,32.0985 82.7709,32.2125 82.8449,32.3305 C82.9179,32.4485 82.9879,32.5575 83.0559,32.6555 L86.9989,38.2125 Z M74.9289,38.2125 L79.4769,38.2125 L79.4769,37.5315 L75.6869,37.5315 L75.6869,34.6645 L78.6199,34.6645 L78.6199,33.9835 L75.6869,33.9835 L75.6869,31.1725 L79.2789,31.1725 L79.2789,30.4915 L74.9289,30.4915 L74.9289,38.2125 Z M72.5939,34.0725 C72.7969,33.7195 72.9009,33.3025 72.9049,32.8205 C72.9009,32.3425 72.7969,31.9295 72.5939,31.5825 C72.3909,31.2355 72.1109,30.9665 71.7539,30.7785 C71.3969,30.5895 70.9859,30.4945 70.5209,30.4915 L67.8529,30.4915 L67.8529,38.2125 L68.6109,38.2125 L68.6109,35.1825 L70.5209,35.1825 C70.9859,35.1795 71.3969,35.0825 71.7539,34.8895 C72.1109,34.6975 72.3909,34.4245 72.5939,34.0725 L72.5939,34.0725 Z M72.1249,32.8205 C72.1229,33.1735 72.0519,33.4745 71.9129,33.7245 C71.7729,33.9755 71.5759,34.1675 71.3229,34.2995 C71.0679,34.4325 70.7689,34.5005 70.4219,34.5015 L68.6109,34.5015 L68.6109,31.1725 L70.4339,31.1725 C70.7759,31.1745 71.0739,31.2385 71.3259,31.3675 C71.5789,31.4975 71.7739,31.6845 71.9129,31.9295 C72.0519,32.1745 72.1229,32.4715 72.1249,32.8205 L72.1249,32.8205 Z M65.5179,34.0725 C65.7209,33.7195 65.8249,33.3025 65.8289,32.8205 C65.8249,32.3425 65.7209,31.9295 65.5179,31.5825 C65.3149,31.2355 65.0349,30.9665 64.6779,30.7785 C64.3209,30.5895 63.9099,30.4945 63.4449,30.4915 L60.7759,30.4915 L60.7759,38.2125 L61.5349,38.2125 L61.5349,35.1825 L63.4449,35.1825 C63.9099,35.1795 64.3209,35.0825 64.6779,34.8895 C65.0349,34.6975 65.3149,34.4245 65.5179,34.0725 L65.5179,34.0725 Z M65.0479,32.8205 C65.0459,33.1735 64.9759,33.4745 64.8359,33.7245 C64.6969,33.9755 64.5009,34.1675 64.2469,34.2995 C63.9919,34.4325 63.6919,34.5005 63.3469,34.5015 L61.5349,34.5015 L61.5349,31.1725 L63.3569,31.1725 C63.6999,31.1745 63.9979,31.2385 64.2499,31.3675 C64.5019,31.4975 64.6979,31.6845 64.8369,31.9295 C64.9759,32.1745 65.0459,32.4715 65.0479,32.8205 L65.0479,32.8205 Z M54.0009,38.2125 L58.5489,38.2125 L58.5489,37.5315 L54.7589,37.5315 L54.7589,34.6645 L57.6919,34.6645 L57.6919,33.9835 L54.7589,33.9835 L54.7589,31.1725 L58.3509,31.1725 L58.3509,30.4915 L54.0009,30.4915 L54.0009,38.2125 Z" id="Fill-6" fill="#FFFFFF"></path>
        </g>
    </g>
</svg>